HIERARCHY
ROOT Hips
{
	OFFSET -3.958830 18.904000 13.208200
	CHANNELS 6 Xposition Yposition Zposition Zrotation Yrotation Xrotation 
	JOINT LHipJoint
	{
		OFFSET 0.000000 0.000000 0.000000
		CHANNELS 3 Zrotation Yrotation Xrotation
		JOINT LeftUpLeg
		{
			OFFSET 1.800000 -1.400000 0.085000
			CHANNELS 3 Zrotation Yrotation Xrotation
			JOINT LeftLeg
			{
				OFFSET 2.215000 -6.000000 0.000000
				CHANNELS 3 Zrotation Yrotation Xrotation
				JOINT LeftFoot
				{
					OFFSET 2.500000 -6.900000 0.000000
					CHANNELS 3 Zrotation Yrotation Xrotation
					JOINT LeftToeBase
					{
						OFFSET 0.200000 -0.500000 1.950000
						CHANNELS 3 Zrotation Yrotation Xrotation
						End Site
						{
							OFFSET 0.000000 0.000000 0.000000
						}
					}
				}
			}
		}
	}
	JOINT RHipJoint
	{
		OFFSET 0.000000 0.000000 0.000000
		CHANNELS 3 Zrotation Yrotation Xrotation
		JOINT RightUpLeg
		{
			OFFSET -1.800000 -1.400000 0.085000
			CHANNELS 3 Zrotation Yrotation Xrotation
			JOINT RightLeg
			{
				OFFSET -2.215000 -6.000000 0.000000
				CHANNELS 3 Zrotation Yrotation Xrotation
				JOINT RightFoot
				{
					OFFSET -2.500000 -6.900000 0.000000
					CHANNELS 3 Zrotation Yrotation Xrotation
					JOINT RightToeBase
					{
						OFFSET -0.200000 -0.500000 1.950000
						CHANNELS 3 Zrotation Yrotation Xrotation
						End Site
						{
							OFFSET 0.000000 0.000000 0.000000
						}
					}
				}
			}
		}
	}
	JOINT LowerBack
	{
		OFFSET 0.000000 0.000000 0.000000
		CHANNELS 3 Zrotation Yrotation Xrotation
		JOINT Spine
		{
			OFFSET -0.087000 1.940000 -0.288900
			CHANNELS 3 Zrotation Yrotation Xrotation
			JOINT Spine1
			{
				OFFSET 0.000000 1.950000 0.060000
				CHANNELS 3 Zrotation Yrotation Xrotation
				JOINT Neck
				{
					OFFSET 0.000000 0.000000 0.000000
					CHANNELS 3 Zrotation Yrotation Xrotation
					JOINT Neck1
					{
						OFFSET 0.000000 1.600000 0.340000
						CHANNELS 3 Zrotation Yrotation Xrotation
						JOINT Head
						{
							OFFSET 0.000000 1.667000 -0.240000
							CHANNELS 3 Zrotation Yrotation Xrotation
							End Site
							{
								OFFSET 0.000000 0.000000 0.000000
							}
						}
					}
				}
				JOINT LeftShoulder
				{
					OFFSET 0.000000 0.000000 0.000000
					CHANNELS 3 Zrotation Yrotation Xrotation
					JOINT LeftArm
					{
						OFFSET 2.700000 1.550000 -0.730000
						CHANNELS 3 Zrotation Yrotation Xrotation
						JOINT LeftForeArm
						{
							OFFSET 5.450000 0.000000 0.000000
							CHANNELS 3 Zrotation Yrotation Xrotation
							JOINT LeftHand
							{
								OFFSET 3.450000 0.000000 0.000000
								CHANNELS 3 Zrotation Yrotation Xrotation
								JOINT LeftHandIndex1
								{
									OFFSET 0.750000 0.000000 0.000000
									CHANNELS 3 Zrotation Yrotation Xrotation
									End Site
									{
										OFFSET 0.000000 0.000000 0.000000
									}
								}
							}
						}
					}
				}
				JOINT RightShoulder
				{
					OFFSET 0.000000 0.000000 0.000000
					CHANNELS 3 Zrotation Yrotation Xrotation
					JOINT RightArm
					{
						OFFSET -2.700000 1.550000 -0.730000
						CHANNELS 3 Zrotation Yrotation Xrotation
						JOINT RightForeArm
						{
							OFFSET -5.450000 0.000000 0.000000
							CHANNELS 3 Zrotation Yrotation Xrotation
							JOINT RightHand
							{
								OFFSET -3.450000 0.000000 0.000000
								CHANNELS 3 Zrotation Yrotation Xrotation
								JOINT RightHandIndex1
								{
									OFFSET -0.750000 0.000000 0.000000
									CHANNELS 3 Zrotation Yrotation Xrotation
									End Site
									{
										OFFSET 0.000000 0.000000 0.000000
									}
								}
							}
						}
					}
				}
			}
		}
	}
}
MOTION
Frames: 12
Frame Time: 0.016667
0.087690 16.477830 -0.335450 -4.093226 25.015096 -5.847983 -14.954920 12.661663 3.351824 5.131612 -0.509624 -3.770564 -12.386221 4.884951 0.632904 0.317303 3.864724 3.355282 0.275530 0.211050 0.201420 18.412312 -12.330269 1.709914 -8.164021 -2.504611 -22.856610 -15.241415 -1.642790 27.824909 -0.198031 -3.958182 2.908542 -0.011120 0.020830 0.070290 -4.804500 1.058992 -7.421903 19.840224 -8.678527 8.391743 -9.822781 -6.729338 11.766927 3.299732 11.057528 -14.906274 20.585399 -27.999227 26.030036 7.204390 -25.814650 -5.611000 4.545503 -10.948957 6.343850 -15.627174 -1.040609 -3.648653 -37.527398 -36.217485 11.460968 -3.138456 3.524780 0.053330 -0.093560 0.068940 0.164160 -13.075179 2.804057 12.227157 13.909041 -10.127860 0.119148 50.783742 29.954726 10.475401 2.237650 -2.294504 0.127860 -0.017370 -0.274590 0.187750 
0.086670 16.466270 -0.345790 -3.859522 24.409644 -5.005433 -14.955217 12.624385 3.342400 4.712353 -0.554240 -4.249587 -12.104002 4.713746 0.234217 0.285815 3.807483 3.383554 0.264860 0.198810 0.188850 18.425134 -12.296405 1.728480 -8.237730 -2.395242 -23.887143 -14.831417 -1.801248 28.708600 -0.183439 -4.040702 2.867083 -0.002580 0.048790 0.080400 -4.779857 1.062011 -7.391812 19.768876 -8.700730 7.698832 -10.009011 -6.830956 11.754189 3.408051 11.162347 -14.727761 20.888610 -28.165827 24.469681 6.488250 -25.629100 -5.074850 4.174425 -10.854313 6.271655 -15.447984 -1.041612 -3.486463 -36.429168 -34.826278 10.645918 -3.186821 3.512563 0.029940 -0.063970 0.042990 0.163880 -12.991500 2.540075 12.186878 14.502808 -10.245480 0.054114 50.765607 32.205735 11.451555 2.220595 -2.343958 0.117800 -0.017320 -0.262470 0.190320 
0.076110 16.453610 -0.373780 -3.050661 22.842625 -4.478849 -14.952889 12.647426 3.325888 3.721769 -0.446696 -4.453155 -11.394372 4.604321 0.493728 0.245089 3.640572 3.391944 0.276980 0.238840 0.212930 18.423903 -12.306726 1.761228 -8.855129 -2.385836 -24.978945 -14.003828 -2.168012 30.323076 -0.202384 -4.174929 2.776168 0.015540 -0.017210 0.079270 -4.716434 1.046996 -7.395542 18.999991 -8.780799 8.442913 -10.609711 -6.819189 11.474303 3.580533 11.747266 -14.998191 22.577430 -28.335165 23.235215 6.145130 -24.485690 -5.778570 2.891069 -11.332733 6.442706 -14.171626 0.014658 -3.522807 -34.854292 -33.334785 9.687580 -3.199640 3.501978 0.035740 -0.082180 0.070970 0.125380 -12.258606 2.666008 12.579202 16.565495 -11.027399 -0.660258 51.017363 37.083004 13.487550 2.232910 -2.392657 0.136770 -0.057730 -0.263500 0.166210 
0.057490 16.442650 -0.399890 -2.623154 19.116703 -3.856370 -14.914792 12.649204 3.265610 2.725843 -0.279803 -4.662168 -10.073203 4.441955 0.857081 0.285068 3.404180 3.447708 0.284400 0.278770 0.186750 18.461681 -12.266942 1.922284 -8.445970 -1.696256 -26.628663 -13.316371 -2.220401 31.959250 -0.222008 -4.288120 2.713050 0.003240 -0.037130 0.112500 -4.687693 1.106508 -7.416735 18.517089 -8.219267 9.537780 -10.494757 -6.281042 10.902012 3.393152 11.989368 -15.018195 23.230154 -27.823443 22.807024 7.260000 -24.133910 -5.493280 1.190570 -11.603628 6.541289 -13.548173 0.761664 -3.478568 -35.294154 -31.319629 9.115567 -3.208298 3.567173 -0.007040 -0.086720 0.095800 0.139160 -10.225895 2.760992 12.511430 17.489542 -12.137249 -1.297818 52.793182 43.526611 16.842947 2.338492 -2.462884 0.201010 -0.121740 -0.284180 0.204050 
0.020520 16.440340 -0.419690 -2.360437 12.860189 -2.508929 -14.870027 12.601760 3.148636 1.930292 -0.339037 -5.701391 -8.819454 4.306451 1.897198 0.304795 3.142307 3.520892 0.363730 0.359360 0.243680 18.525883 -12.072156 2.271429 -6.768668 -0.007475 -29.725256 -13.295891 -1.733170 34.303966 -0.280073 -4.456514 2.640943 0.014180 -0.079950 0.172490 -4.628974 1.133916 -7.440191 17.361376 -6.968799 9.941621 -9.668333 -5.312615 10.397390 3.286035 12.219204 -14.919607 23.655515 -27.262674 22.996218 6.060790 -23.016310 -4.067080 -1.633386 -12.210470 7.101505 -12.696317 3.180284 -3.468439 -38.444627 -29.155514 8.894237 -3.195356 3.684403 -0.042340 -0.084540 0.139850 0.183890 -7.044173 3.168073 11.751120 17.048256 -11.741973 -1.262328 56.136802 48.264311 20.442510 2.471252 -2.512376 0.278620 -0.203380 -0.363410 0.225070 
-0.001470 16.443310 -0.431180 -2.553533 6.450150 -0.874954 -14.877758 12.524218 3.031664 1.837784 -0.621923 -7.237140 -8.545239 4.306732 3.116915 0.206577 3.047689 3.531871 0.492120 0.500010 0.350260 18.557282 -11.755756 2.653400 -4.924981 1.894391 -32.748842 -12.729569 -1.478715 36.994926 -0.358080 -4.727631 2.517119 0.122920 -0.102830 0.225890 -4.489353 1.041244 -7.428487 16.013187 -6.017165 9.407045 -8.533670 -4.923051 9.997232 4.209385 12.641296 -14.160804 24.634690 -26.507406 22.162825 2.364970 -19.948080 -3.868720 -5.915636 -12.546787 7.504277 -11.437097 6.367940 -3.134286 -41.483655 -27.123363 8.454576 -3.236267 3.775013 -0.058200 -0.044650 0.169830 0.219840 -4.115020 3.208392 10.093630 16.395398 -7.871090 -0.505824 57.226811 47.740368 20.844585 2.493476 -2.519575 0.299030 -0.219350 -0.429110 0.204800 
-0.016570 16.461650 -0.454610 -2.914133 0.736823 -0.360923 -14.862749 12.451878 2.952956 2.091995 -0.748447 -7.817275 -8.539674 4.406916 4.130632 0.162128 3.014534 3.505218 0.582910 0.608670 0.434160 18.588714 -11.553113 2.980304 -3.673923 3.543325 -34.209706 -10.976832 -1.892143 40.250524 -0.468241 -5.103224 2.353194 0.188000 -0.152060 0.259190 -4.448689 1.077211 -7.491412 15.598220 -5.221805 10.317436 -8.108764 -4.243183 9.476298 4.810118 12.733221 -13.713892 24.957872 -25.596123 22.819666 0.974350 -17.864570 -4.957230 -8.323743 -12.420426 7.393178 -13.106512 6.594359 -3.174873 -44.319574 -25.362754 8.107289 -3.243837 3.808256 -0.043300 -0.051710 0.223660 0.225170 -2.571768 3.355086 9.320844 20.380464 -4.538522 -1.182263 56.994478 48.222966 20.617468 2.504257 -2.475997 0.328260 -0.234440 -0.468980 0.187070 
-0.015700 16.482340 -0.490100 -3.460852 -4.230574 -0.808291 -14.823433 12.418532 2.901691 2.702968 -0.741544 -7.552495 -8.509554 4.553192 4.971987 0.145269 3.044679 3.463287 0.637070 0.671500 0.482560 18.617209 -11.449400 3.260790 -3.346249 4.874820 -34.588275 -7.747561 -3.377650 44.524801 -0.609407 -5.761281 2.097790 0.227480 -0.198890 0.270960 -4.473532 1.173130 -7.628945 16.215208 -5.165033 12.713522 -8.826916 -3.814515 8.705295 5.481312 12.355014 -13.350330 24.318720 -23.920105 24.103805 0.768550 -16.080270 -5.853520 -10.143688 -11.881922 6.879568 -16.481868 5.542306 -3.486242 -45.722828 -25.113928 8.210273 -3.233568 3.825364 -0.017040 -0.073880 0.258900 0.217430 -1.953967 3.724667 9.159448 27.501880 -1.282542 -2.783807 54.265966 51.471174 20.175655 2.512836 -2.435487 0.340880 -0.257530 -0.490610 0.167170 
-0.016860 16.494530 -0.527280 -3.973860 -8.708358 -0.990371 -14.781069 12.367060 2.837759 3.239196 -0.755175 -7.362124 -8.258103 4.629765 5.593908 0.107401 3.082753 3.443705 0.652680 0.656560 0.540480 18.655383 -11.337716 3.541221 -3.229684 6.189474 -34.862973 -4.455932 -5.299392 48.856079 -0.779902 -6.566146 1.812051 0.227240 -0.226090 0.274700 -4.542069 1.274880 -7.761648 17.015890 -5.322080 14.646011 -9.945840 -3.506937 7.814263 5.975137 11.909637 -12.978908 23.477214 -22.336115 25.546260 0.111990 -14.369370 -6.164230 -12.540251 -11.688818 6.478470 -20.409465 4.311457 -3.820092 -45.488300 -25.578958 8.360746 -3.244506 3.794011 0.029820 -0.086460 0.271690 0.188790 -0.522278 4.356686 9.052769 35.616924 1.387957 -4.690383 51.404121 55.699362 19.816668 2.523360 -2.371871 0.321700 -0.263080 -0.488280 0.122520 
-0.020570 16.491110 -0.554910 -4.352173 -12.306656 -0.601617 -14.737196 12.307343 2.749468 3.336866 -0.857768 -7.913553 -7.630349 4.639348 6.613986 0.078343 3.005285 3.457900 0.646250 0.635260 0.582270 18.699928 -11.252199 3.793395 -3.442597 7.140781 -35.331977 -1.310447 -7.675640 53.127921 -0.977044 -7.499682 1.493012 0.216770 -0.261630 0.261810 -4.647728 1.393036 -7.860500 17.826215 -5.773799 15.508549 -11.160386 -3.570213 6.961902 6.299651 11.306566 -12.618048 22.234566 -20.740256 26.612436 -0.777090 -12.618570 -6.043470 -14.285187 -11.212488 6.090721 -25.338471 3.030923 -4.341840 -44.083175 -26.561515 8.517338 -3.245665 3.764148 0.051080 -0.102410 0.279180 0.155460 0.456419 4.695970 9.089332 44.318339 3.336966 -6.363982 50.481371 59.153403 19.803433 2.553532 -2.347910 0.307930 -0.280100 -0.491180 0.088820 
-0.029960 16.473850 -0.581440 -4.434791 -15.717520 0.483153 -14.722027 12.328594 2.677640 2.891218 -1.086554 -9.575471 -6.562586 4.583311 8.276029 0.027679 2.870713 3.508718 0.609830 0.585490 0.563720 18.711160 -11.179996 3.964515 -3.379995 7.627925 -35.733921 0.474888 -9.371704 55.935499 -1.117638 -8.175487 1.292020 0.194010 -0.238610 0.253650 -4.665417 1.328488 -7.910630 17.701783 -5.999398 15.601216 -11.019248 -3.741203 5.594886 6.155508 10.418747 -11.994289 20.096982 -19.014730 27.366283 -1.262010 -11.397510 -5.591360 -16.325219 -10.387110 5.601817 -31.263503 1.807081 -4.817925 -42.224845 -27.689474 8.574510 -3.275093 3.718261 0.064390 -0.091450 0.262960 0.152510 2.670862 4.751970 8.678596 51.088664 4.337168 -7.517513 51.838237 61.073034 20.592482 2.593312 -2.310157 0.277660 -0.270870 -0.475740 0.079680 
-0.047430 16.447600 -0.602880 -3.870122 -19.612053 1.668082 -14.753157 12.397632 2.680554 1.720503 -1.369424 -11.471273 -5.360507 4.439768 9.803576 0.002190 2.707717 3.575823 0.587060 0.557480 0.543840 18.674088 -11.110775 4.032864 -3.604119 7.775899 -35.647485 1.543570 -10.447342 57.672852 -1.202889 -8.621261 1.175536 0.179560 -0.204800 0.245120 -4.538158 1.114386 -7.931931 15.888877 -5.483038 15.442351 -9.356090 -3.641470 3.735822 5.818804 9.339261 -10.981702 17.539449 -17.225621 27.803853 -1.685290 -10.372160 -5.049020 -20.166186 -8.944826 4.864164 -35.976101 0.902239 -4.771013 -41.466953 -30.291229 9.607857 -3.298805 3.709507 0.050270 -0.073680 0.239050 0.164470 7.291025 4.468993 7.652447 53.873198 4.768013 -7.535334 55.585759 64.026424 23.863891 2.682245 -2.260375 0.261960 -0.259720 -0.473760 0.087270 
